<?xml version="1.0" standalone="no"?>
<!DOCTYPE svg PUBLIC "-//W3C//DTD SVG 20010904//EN"
 "http://www.w3.org/TR/2001/REC-SVG-20010904/DTD/svg10.dtd">
<svg version="1.0" xmlns="http://www.w3.org/2000/svg"
 width="700.000000pt" height="700.000000pt" viewBox="0 0 700.000000 700.000000"
 preserveAspectRatio="xMidYMid meet">
<metadata>
Created by potrace 1.11, written by Peter Selinger 2001-2013
</metadata>
<g transform="translate(0.000000,700.000000) scale(0.100000,-0.100000)"
fill="#000000" stroke="none">
<path d="M3376 6984 c-66 -21 -120 -58 -142 -99 -15 -29 -16 -41 -7 -92 9 -45
77 -250 127 -383 4 -10 -5 -21 -24 -32 -34 -19 -60 -71 -60 -116 0 -46 28
-102 61 -120 31 -18 31 -19 14 -117 -10 -59 -19 -131 -17 -137 1 -5 -10 -8
-26 -9 -39 -1 -93 -7 -202 -25 -385 -61 -782 -239 -1099 -492 l-73 -59 -103
71 c-86 60 -101 74 -95 91 6 17 6 48 1 92 -2 19 -72 83 -98 89 -13 4 -42 4
-63 1 l-39 -5 -26 65 c-45 114 -138 293 -169 329 -64 72 -174 46 -291 -70
-132 -130 -160 -268 -68 -334 39 -28 152 -84 277 -138 l101 -43 0 -55 c1 -59
18 -92 67 -129 32 -24 94 -33 114 -16 8 6 16 10 17 8 66 -87 138 -205 131
-215 -5 -7 -42 -55 -82 -108 -231 -302 -401 -694 -458 -1053 -3 -19 -7 -43 -9
-52 -1 -9 -6 -51 -10 -93 -4 -43 -11 -79 -16 -79 -5 -1 -12 -2 -16 -3 -5 -2
-30 -6 -58 -11 -27 -4 -57 -9 -67 -11 -94 -16 -103 -16 -113 8 -16 36 -72 68
-120 68 -55 0 -114 -40 -131 -88 0 -1 -49 16 -108 38 -174 64 -294 100 -335
100 -32 0 -46 -7 -80 -41 -108 -108 -105 -363 5 -470 30 -29 41 -34 82 -33 26
1 92 16 147 35 55 18 102 33 105 34 3 1 12 5 20 8 38 16 153 57 160 57 4 0 12
-11 18 -25 16 -35 84 -64 135 -59 48 4 83 26 104 63 l16 26 118 -20 c65 -11
120 -22 122 -25 3 -3 7 -34 11 -70 5 -56 22 -162 42 -275 3 -16 17 -68 31
-115 14 -47 27 -94 30 -105 3 -11 9 -29 13 -40 5 -11 21 -51 36 -90 73 -192
233 -468 370 -637 l47 -58 -63 -95 -62 -94 -44 6 c-25 3 -56 1 -73 -6 -58 -25
-108 -111 -90 -159 12 -30 11 -42 -1 -42 -18 0 -251 -108 -327 -152 -81 -46
-102 -77 -97 -141 5 -61 65 -176 119 -225 70 -67 154 -100 237 -93 35 2 96 81
144 186 15 33 47 105 70 160 28 65 48 99 56 96 27 -9 87 -2 116 13 55 28 88
107 69 162 -7 19 5 31 95 92 l103 70 40 -35 c158 -136 405 -283 622 -371 202
-82 354 -122 583 -156 l144 -21 7 -35 c8 -37 14 -82 25 -167 6 -45 4 -53 -9
-53 -9 0 -28 -15 -42 -34 -24 -32 -31 -67 -26 -131 1 -21 39 -67 67 -83 15 -9
12 -24 -34 -148 -102 -282 -108 -321 -52 -379 116 -120 406 -107 491 22 33 49
23 101 -66 345 -30 83 -54 152 -53 153 58 31 88 78 88 135 0 45 -27 97 -61
117 -25 15 -29 22 -24 48 2 16 10 67 16 112 7 45 15 86 18 92 4 6 29 13 56 15
322 30 664 139 958 305 70 39 244 159 305 210 34 28 66 51 72 51 6 0 55 -30
109 -67 96 -66 98 -68 90 -98 -5 -16 -7 -39 -4 -50 2 -11 4 -25 4 -32 2 -33
106 -103 141 -96 3 1 17 4 30 8 24 6 28 1 64 -87 57 -136 133 -282 163 -312
27 -27 40 -30 108 -27 54 2 155 55 208 108 51 51 94 131 101 187 10 85 -33
129 -211 212 -129 60 -151 70 -196 85 -36 13 -38 15 -32 47 7 37 -9 97 -34
126 -9 10 -32 26 -52 37 -35 17 -45 18 -94 4 -16 -4 -32 12 -87 94 -38 55 -68
102 -68 105 0 4 26 39 59 79 117 144 248 364 326 547 91 213 162 486 181 700
4 36 7 66 8 66 0 1 46 9 101 18 55 9 110 19 122 21 16 4 26 -2 39 -25 32 -53
118 -77 181 -51 15 6 38 27 51 45 l23 33 68 -27 c78 -32 283 -100 321 -106 14
-3 31 -7 38 -9 24 -9 84 27 113 68 54 74 70 192 39 281 -37 109 -84 177 -136
196 -33 13 -100 -5 -314 -83 -52 -19 -106 -39 -120 -45 -22 -8 -27 -6 -42 19
-49 80 -190 80 -236 -1 -12 -21 -23 -28 -37 -25 -11 3 -65 12 -120 20 -54 9
-100 17 -102 19 -2 1 -5 25 -8 52 -10 104 -17 152 -36 249 -21 105 -22 108
-65 245 -85 274 -242 566 -417 780 l-54 65 69 102 69 102 48 -6 c60 -7 102 13
136 65 26 40 32 71 21 112 -6 23 -1 27 76 59 138 57 287 134 318 164 46 45 45
112 -5 214 -30 61 -64 101 -120 141 -28 20 -115 52 -151 56 -63 6 -96 -14
-138 -83 -29 -47 -166 -343 -166 -358 0 -1 -10 1 -22 6 -97 35 -206 -75 -173
-174 5 -18 -9 -31 -92 -88 -54 -37 -101 -67 -105 -67 -4 0 -53 35 -110 79
-275 209 -577 354 -903 432 -49 12 -99 23 -110 24 -11 2 -49 8 -85 14 -36 5
-90 13 -120 16 -30 4 -58 10 -61 13 -7 7 -39 198 -39 230 0 10 10 22 22 27 77
34 81 188 7 232 -16 10 -29 21 -29 25 0 4 9 31 21 60 37 95 97 274 109 330 12
52 11 58 -11 97 -36 64 -120 102 -236 107 -60 2 -103 -1 -137 -12z m169 -1370
c35 -23 48 -68 31 -109 -37 -87 -160 -67 -173 28 -9 72 78 123 142 81z m220
-435 c289 -45 577 -170 803 -348 l68 -54 -64 -65 c-53 -55 -63 -70 -60 -93 4
-24 -6 -38 -63 -95 l-68 -67 -83 -1 c-73 -1 -92 -5 -148 -33 -112 -55 -215
-173 -247 -282 -27 -94 -17 -166 28 -207 129 -116 418 38 503 268 17 47 24
148 10 169 -4 6 24 42 66 84 66 66 75 72 98 64 22 -9 31 -3 89 55 36 36 70 62
77 60 15 -7 82 -92 144 -184 52 -77 121 -205 159 -295 52 -125 105 -337 118
-472 l6 -63 -96 0 c-90 0 -97 -2 -122 -26 -23 -23 -35 -27 -97 -28 -77 -2 -69
-7 -149 87 l-48 57 -273 0 c-257 0 -275 -1 -298 -20 -28 -21 -42 -57 -26 -66
5 -3 126 -5 268 -5 237 1 260 -1 269 -17 12 -22 12 -34 -1 -49 -8 -10 -76 -13
-278 -13 l-267 0 3 -27 c1 -16 2 -31 3 -34 1 -3 112 -5 249 -5 136 1 257 0
269 -2 24 -4 34 -28 23 -57 -7 -19 -18 -20 -271 -20 -154 1 -267 -3 -270 -9
-14 -20 12 -65 44 -75 18 -5 149 -9 292 -9 l260 1 31 33 c17 18 44 53 60 78
l29 46 71 0 c62 0 73 -3 94 -25 22 -23 30 -25 122 -25 l99 0 -6 -57 c-10 -101
-26 -206 -41 -268 -52 -228 -174 -474 -327 -657 l-49 -60 -64 63 c-50 50 -69
62 -93 61 -25 0 -43 12 -101 70 -57 56 -69 74 -64 91 11 33 6 110 -10 154 -45
129 -180 260 -304 297 -60 17 -147 15 -180 -5 -101 -62 -78 -249 48 -392 93
-105 242 -174 329 -151 l39 11 75 -73 c64 -62 74 -76 69 -99 -4 -23 6 -37 59
-91 l64 -65 -36 -32 c-91 -81 -220 -167 -344 -229 -108 -54 -316 -127 -405
-142 -19 -3 -46 -8 -60 -11 -14 -3 -47 -8 -75 -11 -27 -3 -62 -7 -77 -9 l-28
-3 0 99 c0 94 -2 101 -25 123 -22 21 -25 31 -25 98 l0 74 70 57 c39 31 70 63
71 70 6 70 3 519 -4 540 -10 30 -42 57 -69 57 -17 0 -18 -18 -18 -275 0 -247
-2 -275 -17 -283 -11 -6 -25 -6 -39 0 l-23 11 2 270 2 270 33 3 c49 6 140 40
198 76 287 174 365 559 169 834 -123 172 -344 265 -553 232 -101 -16 -169 -45
-264 -115 l-47 -34 16 31 c41 84 -14 239 -124 349 -99 98 -217 147 -311 129
l-43 -8 -70 73 c-57 60 -68 76 -64 97 5 21 -6 37 -60 92 l-66 66 68 55 c187
150 435 275 638 323 89 21 219 45 270 49 l65 6 0 -99 c0 -92 2 -100 25 -122
22 -21 25 -32 25 -91 l0 -67 -65 -47 c-36 -25 -72 -56 -79 -68 -21 -33 -17
-556 4 -582 16 -19 50 -34 65 -28 7 2 10 97 10 271 -1 147 1 274 3 284 5 22
36 29 59 13 17 -12 18 -33 17 -284 l-1 -271 39 0 c29 0 38 4 39 18 0 9 0 127
0 262 0 135 2 252 5 261 6 21 36 29 58 17 14 -8 16 -39 16 -283 0 -296 -1
-292 51 -265 41 22 45 52 43 310 -1 135 -2 254 -3 266 -1 24 -51 77 -103 111
l-38 23 0 78 c0 71 2 81 25 102 23 22 25 30 25 121 l0 97 43 -4 c23 -2 74 -9
112 -15z m-1651 -168 c48 -50 32 -124 -33 -151 -73 -30 -138 47 -110 129 20
56 98 69 143 22z m2890 -2 c47 -56 22 -137 -48 -155 -36 -9 -87 23 -98 61 -28
100 82 171 146 94z m-2722 -439 c57 -56 73 -65 107 -60 8 1 46 -31 86 -70 72
-72 72 -72 64 -111 -34 -149 114 -358 301 -426 55 -20 143 -24 185 -9 11 5 15
4 9 -1 -21 -15 -94 -136 -106 -175 -12 -39 -25 -48 -34 -24 -10 27 -59 32
-315 31 -293 -1 -283 2 -346 -90 l-38 -54 -77 -1 c-69 0 -80 3 -102 25 -23 23
-32 25 -121 25 l-96 0 6 63 c22 231 125 529 252 725 40 61 154 211 162 212 2
0 30 -27 63 -60z m1333 -724 c100 -31 198 -133 230 -239 45 -153 -18 -328
-149 -412 -61 -38 -103 -53 -174 -60 -235 -22 -430 193 -389 430 24 141 144
267 280 295 55 11 139 5 202 -14z m-719 -243 c-2 -16 -5 -33 -5 -40 -1 -9 -66
-12 -261 -11 -280 1 -289 3 -276 53 l6 25 271 0 270 0 -5 -27z m-1405 -23 c10
-6 25 -23 32 -38 45 -91 -62 -175 -139 -108 -40 33 -40 99 0 132 29 25 74 31
107 14z m4107 -5 c46 -33 44 -118 -3 -149 -59 -39 -145 5 -145 74 0 69 91 114
148 75z m-2668 -175 c19 -90 54 -168 104 -233 29 -38 32 -46 15 -36 -32 16
-116 16 -169 -1 -110 -34 -226 -137 -282 -248 -29 -60 -33 -76 -33 -150 l-1
-82 -67 -68 c-58 -58 -72 -68 -96 -64 -25 3 -39 -7 -105 -74 -42 -42 -78 -75
-80 -73 -109 126 -202 269 -270 414 -40 86 -101 259 -111 314 -3 19 -8 37 -10
41 -6 10 -25 128 -31 203 l-7 67 97 0 c90 0 99 2 122 25 22 22 34 25 93 25
l69 0 32 -50 c17 -27 45 -62 62 -79 l30 -29 280 1 280 2 19 24 c10 13 19 33
19 45 0 21 -1 21 -252 20 -139 0 -261 4 -270 8 -10 5 -18 17 -18 28 0 43 12
45 295 45 l269 -1 16 -74z m290 -433 c63 -30 160 -57 205 -57 l30 0 -1 -266
c0 -244 -2 -268 -18 -280 -17 -12 -45 -9 -56 7 -3 4 -5 127 -5 273 0 286 2
279 -50 260 -38 -15 -42 -49 -41 -332 l1 -273 35 -30 c19 -16 54 -41 77 -57
l43 -27 0 -71 c0 -62 -3 -73 -25 -94 -22 -21 -25 -32 -27 -119 l-3 -96 -45 3
c-39 2 -162 22 -225 36 -250 55 -499 176 -704 342 l-60 48 64 67 c54 56 63 70
60 96 -3 26 6 39 68 100 65 63 74 69 97 61 78 -29 228 29 325 127 85 84 129
175 130 265 0 36 -4 76 -9 89 -8 22 -5 22 35 -11 24 -19 69 -47 99 -61z
m-1129 -833 c58 -29 67 -98 20 -145 -34 -33 -69 -37 -112 -12 -27 16 -47 53
-43 81 1 6 2 17 3 23 2 19 57 64 81 66 13 1 36 -5 51 -13z m2882 5 c63 -32 75
-102 28 -150 -63 -62 -154 -19 -154 73 0 24 8 39 33 60 37 30 59 34 93 17z
m-1425 -619 c46 -39 46 -108 0 -143 -52 -39 -121 -17 -139 43 -26 86 72 156
139 100z"/>
</g>
</svg>
