<svg width="13" height="9" viewBox="0 0 13 9" fill="none" xmlns="http://www.w3.org/2000/svg">
<path d="M5.58594 7.77344L0.273438 2.46094C0.0911458 2.27865 0 2.05729 0 1.79688C0 1.53646 0.0911458 1.3151 0.273438 1.13281L1.17188 0.273438C1.35417 0.0911458 1.57552 0 1.83594 0C2.09635 0 2.31771 0.0911458 2.5 0.273438L6.25 4.02344L10 0.273438C10.1823 0.0911458 10.4036 0 10.6641 0C10.9245 0 11.1458 0.0911458 11.3281 0.273438L12.2266 1.13281C12.4089 1.3151 12.5 1.53646 12.5 1.79688C12.5 2.05729 12.4089 2.27865 12.2266 2.46094L6.91406 7.77344C6.73177 7.95573 6.51042 8.04688 6.25 8.04688C5.98958 8.04688 5.76823 7.95573 5.58594 7.77344Z" fill="currentColor"/>
</svg>
